<svg width="60" height="45" viewBox="0 0 60 45" fill="none" xmlns="http://www.w3.org/2000/svg">
<path d="M24.9304 40.7932C22.7693 43.1467 20.3625 44.5195 17.7102 44.9117C15.0579 45.2059 12.4547 44.7647 9.9006 43.5879C7.44474 42.3131 5.33271 40.499 3.5645 38.1456C1.79628 35.596 0.666589 32.6542 0.175418 29.3201C-0.315752 25.888 0.224535 22.2107 1.79628 18.2883C3.46626 14.2678 6.41329 10.5905 10.6374 7.25649C14.9597 3.82436 20.1169 1.47091 26.1092 0.196119C27.1898 0 27.9266 -0.0490297 28.3195 0.0490297C28.7124 0.147089 28.958 0.294181 29.0563 0.490305C29.0563 1.37285 28.7615 2.01024 28.1721 2.40248C25.7163 3.77533 23.6534 5.49139 21.9834 7.55066C20.3134 9.60994 19.282 11.6202 18.889 13.5814C18.4961 15.4445 18.9381 16.8174 20.2152 17.6999C20.6081 17.9941 21.5413 18.8276 23.0149 20.2005C24.4884 21.4753 25.8636 23.1913 27.1407 25.3487C28.4177 27.4079 29.0071 29.7614 28.9089 32.409C28.9089 35.0567 27.5827 37.8514 24.9304 40.7932ZM55.8742 40.7932C53.713 43.1467 51.3063 44.5195 48.654 44.9117C46.0016 45.2059 43.3984 44.7647 40.8443 43.5879C38.3885 42.3131 36.2765 40.499 34.5082 38.1456C32.74 35.596 31.6103 32.6542 31.1192 29.3201C30.628 25.888 31.1683 22.2107 32.74 18.2883C34.41 14.2678 37.357 10.5905 41.5811 7.25649C45.9034 3.82436 51.0607 1.47091 57.053 0.196119C58.1336 0 58.8703 -0.0490297 59.2632 0.0490297C59.6562 0.147089 59.9018 0.294181 60 0.490305C60 1.37285 59.7053 2.01024 59.1159 2.40248C56.66 3.77533 54.5971 5.49139 52.9271 7.55066C51.2572 9.60994 50.2257 11.6202 49.8328 13.5814C49.4398 15.4445 49.8819 16.8174 51.1589 17.6999C51.5519 17.9941 52.4851 18.8276 53.9586 20.2005C55.4321 21.4753 56.8074 23.1913 58.0844 25.3487C59.3615 27.4079 59.9509 29.7614 59.8526 32.409C59.8526 35.0567 58.5265 37.8514 55.8742 40.7932Z" fill="#CA8E2B"/>
</svg>
