<svg width="52" height="43" viewBox="0 0 52 43" fill="none" xmlns="http://www.w3.org/2000/svg">
<path fill-rule="evenodd" clip-rule="evenodd" d="M26 0.374237L44.184 0.88837C47.3971 0.979215 50.0546 3.41835 50.42 6.61185C51.2288 13.6809 51.2288 20.8191 50.42 27.8881C50.0546 31.0816 47.3971 33.5208 44.184 33.6116L30.375 34.002V39.125H38.5C39.5355 39.125 40.375 39.9645 40.375 41C40.375 42.0355 39.5355 42.875 38.5 42.875H13.5C12.4645 42.875 11.625 42.0355 11.625 41C11.625 39.9645 12.4645 39.125 13.5 39.125H21.625V34.002L7.81589 33.6116C4.60284 33.5208 1.9453 31.0816 1.57991 27.8881C0.771093 20.8191 0.771094 13.6809 1.57991 6.61185C1.9453 3.41835 4.60284 0.979215 7.81589 0.88837L26 0.374237ZM26 4.12574L7.92188 4.63687C6.57386 4.67499 5.4589 5.69831 5.3056 7.03813C4.5292 13.8239 4.5292 20.6761 5.3056 27.4618C5.4589 28.8017 6.57386 29.825 7.92188 29.8631L26 30.3742L44.078 29.8631C45.4261 29.825 46.541 28.8017 46.6943 27.4618C47.4707 20.6761 47.4707 13.8239 46.6943 7.03813C46.541 5.69831 45.4261 4.67499 44.078 4.63687L26 4.12574Z" fill="#CA8E2B"/>
</svg>
