<svg width="40" height="52" viewBox="0 0 40 52" fill="none" xmlns="http://www.w3.org/2000/svg">
<path fill-rule="evenodd" clip-rule="evenodd" d="M29.1252 5.65726L31.1586 5.9105C35.852 6.49502 39.375 10.484 39.375 15.2136V41.4372C39.375 46.0294 35.9544 49.9025 31.3973 50.47C23.8283 51.4127 16.1717 51.4127 8.60268 50.47C4.04564 49.9025 0.625 46.0294 0.625 41.4372V15.2136C0.625 10.484 4.14799 6.49502 8.84137 5.9105L10.8748 5.65726C11.6802 2.75514 14.3413 0.625 17.5 0.625H22.5C25.6587 0.625 28.3198 2.75514 29.1252 5.65726ZM10.625 9.46733L9.30482 9.63175C6.48879 9.98246 4.375 12.3758 4.375 15.2136V41.4372C4.375 44.1376 6.38645 46.4151 9.06614 46.7488C16.3273 47.6531 23.6727 47.6531 30.9339 46.7488C33.6136 46.4151 35.625 44.1376 35.625 41.4372V15.2136C35.625 12.3758 33.5112 9.98246 30.6952 9.63175L29.375 9.46733V12.5C29.375 13.5355 28.5355 14.375 27.5 14.375H12.5C11.4645 14.375 10.625 13.5355 10.625 12.5V9.46733ZM14.375 7.5C14.375 5.77411 15.7741 4.375 17.5 4.375H22.5C24.2259 4.375 25.625 5.77411 25.625 7.5V10.625H14.375V7.5Z" fill="#CA8E2B"/>
<path d="M29.375 24.375C29.375 23.3395 28.5355 22.5 27.5 22.5H12.5C11.4645 22.5 10.625 23.3395 10.625 24.375C10.625 25.4105 11.4645 26.25 12.5 26.25H27.5C28.5355 26.25 29.375 25.4105 29.375 24.375Z" fill="#CA8E2B"/>
<path d="M26.875 31.875C26.875 30.8395 26.0355 30 25 30H12.5C11.4645 30 10.625 30.8395 10.625 31.875C10.625 32.9105 11.4645 33.75 12.5 33.75H25C26.0355 33.75 26.875 32.9105 26.875 31.875Z" fill="#CA8E2B"/>
</svg>
