<svg width="52" height="38" viewBox="0 0 52 38" fill="none" xmlns="http://www.w3.org/2000/svg">
<path fill-rule="evenodd" clip-rule="evenodd" d="M43.9593 1.28076L26 0.874542L8.04067 1.28076C4.71278 1.35604 1.89503 3.75759 1.29331 7.0315C-0.161001 14.9442 -0.161001 23.0558 1.29331 30.9685C1.89503 34.2425 4.71278 36.644 8.04067 36.7193L26 37.1255L43.9593 36.7193C47.2872 36.644 50.1049 34.2425 50.7067 30.9685C52.161 23.0558 52.161 14.9442 50.7067 7.0315C50.1049 3.75759 47.2872 1.35604 43.9593 1.28076ZM8.12547 5.02981L26 4.6255L43.8745 5.02981C45.4251 5.06488 46.7381 6.18389 47.0184 7.70937C47.4016 9.79434 47.6778 11.8939 47.8469 14H4.15302C4.32216 11.8939 4.59833 9.79434 4.98153 7.70937C5.2619 6.18388 6.57484 5.06488 8.12547 5.02981ZM3.95258 19C3.95257 22.7792 4.29556 26.5584 4.98153 30.2907C5.2619 31.8162 6.57484 32.9352 8.12547 32.9702L26 33.3745L43.8745 32.9702C45.4251 32.9352 46.7381 31.8162 47.0184 30.2907C47.7044 26.5584 48.0474 22.7792 48.0474 19H3.95258Z" fill="#CA8E2B"/>
</svg>
