<svg width="16" height="12" viewBox="0 0 16 12" fill="none" xmlns="http://www.w3.org/2000/svg">
<path d="M10.1339 6.00059C10.1339 7.17879 9.17879 8.13391 8.00059 8.13391C6.82239 8.13391 5.86727 7.17879 5.86727 6.00059C5.86727 4.82239 6.82239 3.86727 8.00059 3.86727C9.17879 3.86727 10.1339 4.82239 10.1339 6.00059Z" fill="#8E8EA9"/>
<path fill-rule="evenodd" clip-rule="evenodd" d="M12.5196 2.06907C13.8022 2.8974 14.9466 4.05606 15.8286 5.42005C15.9399 5.59262 15.9994 5.79351 16 5.99889C16.0006 6.20426 15.9422 6.4055 15.8319 6.57871C14.9532 7.95403 13.8112 9.11702 12.5292 9.94268C11.1163 10.8523 9.54626 11.3333 7.98928 11.3333C6.39729 11.3333 4.8673 10.8667 3.44564 9.94568C2.18298 9.12869 1.04999 7.96836 0.169664 6.59071C0.0553699 6.41338 -0.003626 6.20607 0.000172543 5.99513C0.00397108 5.7842 0.0703926 5.57915 0.190997 5.40605C1.25932 3.87439 2.48931 2.68473 3.84697 1.87041C5.1783 1.07175 6.57195 0.666748 7.98928 0.666748C9.53393 0.666748 11.1006 1.15174 12.5196 2.06907ZM6.2228 8.66073C6.74903 9.01235 7.36771 9.20002 8.00061 9.20002C8.849 9.19905 9.66236 8.8616 10.2623 8.2617C10.8622 7.6618 11.1996 6.84843 11.2006 6.00004C11.2006 5.36715 11.0129 4.74847 10.6613 4.22223C10.3097 3.696 9.80991 3.28585 9.22519 3.04365C8.64047 2.80145 7.99706 2.73808 7.37632 2.86155C6.75559 2.98503 6.18541 3.28979 5.73788 3.73732C5.29036 4.18484 4.98559 4.75502 4.86212 5.37576C4.73865 5.99649 4.80202 6.6399 5.04422 7.22462C5.28641 7.80934 5.69656 8.30911 6.2228 8.66073Z" fill="#8E8EA9"/>
</svg>
