<svg width="110" height="37" viewBox="0 0 110 37" fill="none" xmlns="http://www.w3.org/2000/svg">
<path d="M32.7659 13.8508V16.383H31.5722C29.385 16.383 28.2913 15.3511 28.2913 13.2873V11.2982H27.3049V8.81354H28.2913V7.0213H31.4364V8.84748H32.7373V11.3322H31.4364V13.3688C31.4295 13.4392 31.4373 13.5103 31.4593 13.5779C31.4814 13.6455 31.5174 13.7082 31.5651 13.7625C31.694 13.855 31.8545 13.8985 32.0154 13.8847L32.7659 13.8508Z" fill="#016096"/>
<path d="M41.3122 12.9993H36.4921C36.5398 13.684 36.8126 13.9852 37.3171 13.9852C37.4619 13.9874 37.604 13.9462 37.7254 13.8669C37.8468 13.7877 37.942 13.6739 37.9988 13.5402H41.1691C41.0653 14.0733 40.831 14.5722 40.4873 14.9917C40.1328 15.4262 39.6854 15.7749 39.1783 16.0119C38.6353 16.2621 38.0439 16.3884 37.4466 16.3816C36.7361 16.3996 36.0326 16.2371 35.4013 15.9092C34.8212 15.5993 34.3464 15.1224 34.0378 14.5398C33.7022 13.9085 33.5332 13.2013 33.5469 12.4858C33.535 11.7704 33.7039 11.0637 34.0378 10.4317C34.3477 9.85008 34.8222 9.3736 35.4013 9.06234C36.0308 8.72889 36.7352 8.56383 37.4466 8.58305C38.157 8.56593 38.8603 8.72839 39.4919 9.05548C40.0648 9.3564 40.5385 9.81782 40.8554 10.3838C41.1945 11.0138 41.3638 11.7219 41.3463 12.4378C41.3474 12.6255 41.336 12.8131 41.3122 12.9993ZM38.3193 11.6847C38.3268 11.5761 38.3085 11.4673 38.2658 11.3673C38.2231 11.2673 38.1573 11.1789 38.0738 11.1095C37.9002 10.9754 37.686 10.9053 37.4671 10.911C37.3551 10.8997 37.2419 10.9107 37.1342 10.9436C37.0265 10.9764 36.9263 11.0303 36.8394 11.1023C36.7526 11.1742 36.6808 11.2627 36.6282 11.3627C36.5756 11.4627 36.5433 11.5721 36.533 11.6847H38.3193Z" fill="#016096"/>
<path d="M45.2482 6.24115V16.383H42.1277V6.24115H45.2482Z" fill="#016096"/>
<path d="M53.7944 12.9993H48.9743C49.0221 13.684 49.2948 13.9852 49.7993 13.9852C49.9441 13.9874 50.0862 13.9462 50.2076 13.8669C50.329 13.7877 50.4242 13.6739 50.4811 13.5402H53.6513C53.5475 14.0733 53.3132 14.5722 52.9695 14.9917C52.615 15.4262 52.1676 15.7749 51.6605 16.0119C51.1176 16.2621 50.5262 16.3884 49.9288 16.3816C49.2183 16.3996 48.5148 16.2371 47.8835 15.9092C47.3034 15.5993 46.8286 15.1224 46.52 14.5398C46.1844 13.9085 46.0154 13.2013 46.0291 12.4858C46.0172 11.7704 46.1861 11.0637 46.52 10.4317C46.8299 9.85008 47.3044 9.3736 47.8835 9.06234C48.513 8.72889 49.2174 8.56383 49.9288 8.58305C50.6392 8.56593 51.3425 8.72839 51.9741 9.05548C52.5448 9.35955 53.0177 9.8202 53.3377 10.3838C53.6768 11.0138 53.846 11.7219 53.8285 12.4378C53.8296 12.6255 53.8182 12.8131 53.7944 12.9993ZM50.7947 11.6847C50.803 11.5767 50.7858 11.4683 50.7443 11.3683C50.7028 11.2683 50.6383 11.1796 50.556 11.1095C50.3825 10.9754 50.1682 10.9053 49.9493 10.911C49.8372 10.8997 49.7241 10.9107 49.6164 10.9436C49.5087 10.9764 49.4085 11.0303 49.3217 11.1023C49.2348 11.1742 49.163 11.2627 49.1104 11.3627C49.0579 11.4627 49.0255 11.5721 49.0152 11.6847H50.7947Z" fill="#016096"/>
<path d="M40.5362 18.8369C41.1007 19.507 41.3895 20.3722 41.3425 21.2529V25.7447H38.3562V21.6417C38.3634 21.4984 38.3409 21.3552 38.2903 21.2213C38.2397 21.0874 38.162 20.9657 38.0624 20.8641C37.842 20.6796 37.5654 20.5787 37.2799 20.5787C36.9944 20.5787 36.7177 20.6796 36.4974 20.8641C36.4012 20.9676 36.3267 21.0899 36.2786 21.2236C36.2304 21.3573 36.2095 21.4995 36.2172 21.6417V25.7447H33.2241V21.6417C33.2321 21.4989 33.2108 21.356 33.1613 21.2222C33.1119 21.0883 33.0355 20.9663 32.9371 20.8641C32.7238 20.6698 32.4443 20.5677 32.158 20.5795C32.015 20.5716 31.8718 20.5927 31.7369 20.6416C31.602 20.6905 31.478 20.7661 31.3721 20.8641C31.2736 20.9663 31.1973 21.0883 31.1478 21.2222C31.0984 21.356 31.077 21.4989 31.0851 21.6417V25.7447H28.0851V18.0039H31.0851V19.0452C31.3116 18.7085 31.6169 18.4342 31.9735 18.2469C32.3823 18.0387 32.8353 17.9362 33.2924 17.9483C33.8025 17.9367 34.3068 18.0612 34.7548 18.3093C35.1761 18.551 35.5255 18.9036 35.7662 19.3299C36.0498 18.9247 36.4156 18.5862 36.8391 18.3371C37.2739 18.0777 37.77 17.9434 38.2742 17.9483C38.6919 17.9235 39.1099 17.9899 39.5001 18.1432C39.8903 18.2965 40.2436 18.5331 40.5362 18.8369Z" fill="#016096"/>
<path d="M49.8949 22.354H45.0741C45.1218 23.0387 45.3946 23.3467 45.8991 23.3467C46.0449 23.3493 46.1881 23.3075 46.3098 23.2268C46.4315 23.1462 46.526 23.0305 46.581 22.8949H49.7517C49.6479 23.4301 49.4136 23.9311 49.0698 24.3532C48.7167 24.7875 48.2688 25.1343 47.7607 25.3666C47.2181 25.6189 46.6266 25.7475 46.0287 25.7431C45.3172 25.7624 44.6127 25.5973 43.9831 25.2639C43.4039 24.9526 42.9294 24.4761 42.6194 23.8945C42.2854 23.2625 42.1165 22.5558 42.1285 21.8405C42.1147 21.1249 42.2837 20.4177 42.6194 19.7864C42.928 19.2038 43.4029 18.7269 43.9831 18.417C44.6145 18.0891 45.3181 17.9266 46.0287 17.9446C46.7383 17.9285 47.4409 18.0884 48.0743 18.4102C48.646 18.7161 49.119 19.1792 49.438 19.7453C49.8545 20.5566 50.0117 21.4771 49.8881 22.3814L49.8949 22.354ZM46.9015 21.0462C46.909 20.9377 46.8907 20.8289 46.848 20.7288C46.8053 20.6288 46.7395 20.5405 46.656 20.4711C46.4841 20.3338 46.2687 20.2633 46.0492 20.2725C45.937 20.2602 45.8235 20.2707 45.7154 20.3031C45.6072 20.3356 45.5067 20.3895 45.4196 20.4616C45.3326 20.5337 45.2608 20.6226 45.2085 20.723C45.1561 20.8234 45.1244 20.9333 45.115 21.0462H46.9015Z" fill="#016096"/>
<path d="M51.1009 19.7305C51.3262 19.1752 51.696 18.6995 52.1668 18.3592C52.6189 18.0492 53.1468 17.8871 53.6849 17.893C54.1074 17.8821 54.5254 17.9859 54.8994 18.1947C55.2265 18.3887 55.4935 18.6793 55.6682 19.0312V15.6028H58.5106V25.6341H55.6682V24.6056C55.4925 24.9549 55.2256 25.243 54.8994 25.4353C54.5271 25.6493 54.1082 25.7557 53.6849 25.7438C53.1457 25.7505 52.617 25.5857 52.1668 25.2707C51.6937 24.933 51.3234 24.4565 51.1009 23.8994C50.5787 22.5579 50.5787 21.0514 51.1009 19.71V19.7305ZM55.3904 20.8756C55.2927 20.7673 55.1754 20.6812 55.0455 20.6223C54.9156 20.5634 54.7758 20.5331 54.6346 20.5331C54.4933 20.5331 54.3536 20.5634 54.2237 20.6223C54.0938 20.6812 53.9764 20.7673 53.8787 20.8756C53.6736 21.1412 53.5699 21.4789 53.5881 21.8218C53.5683 22.167 53.6721 22.5075 53.8787 22.7749C53.9773 22.8814 54.095 22.9661 54.2248 23.0239C54.3545 23.0816 54.4939 23.1114 54.6346 23.1114C54.7753 23.1114 54.9146 23.0816 55.0444 23.0239C55.1742 22.9661 55.2918 22.8814 55.3904 22.7749C55.5971 22.5075 55.7009 22.167 55.6811 21.8218C55.6993 21.4789 55.5955 21.1412 55.3904 20.8756Z" fill="#016096"/>
<path d="M60.4976 17.3184C60.3607 17.1905 60.2515 17.0317 60.1779 16.8533C60.1042 16.6749 60.0678 16.4812 60.0713 16.2859C60.066 16.0884 60.1015 15.8921 60.1752 15.7113C60.249 15.5304 60.359 15.3695 60.4976 15.2401C60.8221 14.9695 61.2208 14.8227 61.6311 14.8227C62.0414 14.8227 62.44 14.9695 62.7646 15.2401C62.9031 15.3695 63.0133 15.5304 63.087 15.7113C63.1607 15.8921 63.1962 16.0884 63.1908 16.2859C63.1943 16.4812 63.158 16.6749 63.0843 16.8533C63.0106 17.0317 62.9015 17.1905 62.7646 17.3184C62.4371 17.5817 62.0396 17.7239 61.6311 17.7239C61.2226 17.7239 60.825 17.5817 60.4976 17.3184ZM62.9685 18.3176V25.7447H60.2566V18.3176H62.9685Z" fill="#016096"/>
<path d="M64.4833 19.7802C64.7978 19.2011 65.278 18.7265 65.864 18.4157C66.5032 18.089 67.2155 17.9271 67.9349 17.945C68.8525 17.9175 69.7501 18.2124 70.4684 18.7773C71.1766 19.3689 71.6408 20.1966 71.7731 21.1037H68.5493C68.5274 20.9385 68.4451 20.787 68.318 20.6776C68.1908 20.5683 68.0275 20.5087 67.859 20.5101C67.7407 20.5083 67.6241 20.5385 67.5219 20.5974C67.4197 20.6563 67.3357 20.7418 67.2791 20.8444C67.1381 21.1592 67.0653 21.4997 67.0653 21.8439C67.0653 22.1881 67.1381 22.5286 67.2791 22.8433C67.3357 22.946 67.4197 23.0314 67.5219 23.0903C67.6241 23.1493 67.7407 23.1794 67.859 23.1776C68.0275 23.179 68.1908 23.1195 68.318 23.0101C68.4451 22.9008 68.5274 22.7493 68.5493 22.5841H71.7593C71.6267 23.4891 71.1624 24.3146 70.4546 24.9036C69.7388 25.4737 68.8399 25.7714 67.9211 25.7428C67.2007 25.7619 66.4875 25.5975 65.8501 25.2652C65.2652 24.9531 64.7853 24.4788 64.4695 23.9008C64.1314 23.271 63.9604 22.5669 63.9725 21.8541C63.9581 21.1307 64.1341 20.4161 64.4833 19.7802Z" fill="#016096"/>
<path d="M74.4527 25.2654C73.8689 24.9586 73.3839 24.4825 73.0568 23.8951C72.7153 23.2687 72.5417 22.5591 72.554 21.8398C72.5398 21.1203 72.7135 20.4101 73.0568 19.7844C73.3826 19.1961 73.868 18.7197 74.4527 18.4142C75.0774 18.1042 75.7612 17.9432 76.4539 17.9432C77.1466 17.9432 77.8305 18.1042 78.4551 18.4142C79.0399 18.7197 79.5252 19.1961 79.851 19.7844C80.1944 20.4101 80.3681 21.1203 80.3538 21.8398C80.3661 22.5591 80.1925 23.2687 79.851 23.8951C79.524 24.4825 79.039 24.9586 78.4551 25.2654C77.832 25.5807 77.1475 25.7447 76.4539 25.7447C75.7603 25.7447 75.0759 25.5807 74.4527 25.2654ZM77.132 22.8126C77.336 22.529 77.4346 22.1788 77.4099 21.8261C77.4348 21.4754 77.3361 21.1273 77.132 20.8463C77.0495 20.7429 76.9459 20.6597 76.8287 20.6026C76.7114 20.5454 76.5835 20.5158 76.4539 20.5158C76.3243 20.5158 76.1964 20.5454 76.0792 20.6026C75.962 20.6597 75.8584 20.7429 75.7758 20.8463C75.5718 21.1273 75.473 21.4754 75.4979 21.8261C75.4713 22.178 75.5676 22.5281 75.7692 22.8126C75.853 22.9151 75.9574 22.9975 76.0751 23.0539C76.1928 23.1104 76.3209 23.1397 76.4506 23.1397C76.5803 23.1397 76.7084 23.1104 76.8261 23.0539C76.9438 22.9975 77.0482 22.9151 77.132 22.8126Z" fill="#016096"/>
<path d="M83.0026 25.4353C82.4868 25.233 82.0332 24.8986 81.6869 24.4655C81.3646 24.0635 81.1721 23.5728 81.1348 23.0585H84.0046C84.0141 23.158 84.0452 23.2543 84.0959 23.3405C84.1465 23.4266 84.2155 23.5006 84.2978 23.5571C84.4759 23.6728 84.6855 23.7301 84.8976 23.721C85.026 23.7275 85.1529 23.6915 85.2589 23.6186C85.3008 23.5928 85.3353 23.5566 85.3592 23.5135C85.3831 23.4705 85.3955 23.422 85.3952 23.3727C85.3942 23.2893 85.3665 23.2085 85.3162 23.1421C85.2659 23.0757 85.1956 23.0273 85.1157 23.0039C84.801 22.9028 84.4799 22.8229 84.1546 22.7648C83.692 22.6802 83.2363 22.5615 82.7912 22.4097C82.4251 22.2723 82.1042 22.0359 81.8642 21.7267C81.5783 21.37 81.435 20.9197 81.462 20.4631C81.4562 20.0093 81.5868 19.5643 81.8369 19.1859C82.1081 18.7838 82.4891 18.4684 82.9344 18.2775C83.4933 18.0448 84.0949 17.9331 84.6999 17.9497C85.5699 17.8972 86.4288 18.167 87.1131 18.7078C87.6929 19.2106 88.0648 19.912 88.156 20.6748H85.4975C85.4624 20.4862 85.3608 20.3165 85.2112 20.1968C85.0425 20.0766 84.8385 20.0165 84.6318 20.026C84.5097 20.0206 84.3887 20.0515 84.2841 20.1148C84.2436 20.1458 84.2112 20.1863 84.1898 20.2327C84.1684 20.2792 84.1587 20.3301 84.1614 20.3812C84.1614 20.5314 84.2568 20.6475 84.4477 20.7227C84.7403 20.8277 85.0414 20.9077 85.3475 20.9617C85.8102 21.0489 86.2659 21.1698 86.7109 21.3237C87.0948 21.4598 87.4359 21.6955 87.6993 22.0067C87.9618 22.3845 88.1024 22.8338 88.1024 23.2941C88.1024 23.7545 87.9618 24.2038 87.6993 24.5816C87.4055 24.9612 87.0144 25.2539 86.5677 25.4285C86.0225 25.6494 85.4379 25.7564 84.8499 25.7427C84.2201 25.7605 83.5928 25.6561 83.0026 25.4353Z" fill="#016096"/>
<path d="M28.8835 31.069C28.6544 30.9873 28.4546 30.848 28.3069 30.667C28.1625 30.4799 28.085 30.256 28.0851 30.0264H29.1571C29.1588 30.0866 29.1734 30.1458 29.2 30.2008C29.2266 30.2558 29.2648 30.3054 29.3124 30.3467C29.4103 30.4256 29.5372 30.467 29.6672 30.4625C29.7936 30.4675 29.9183 30.434 30.0221 30.3671C30.0638 30.3347 30.0968 30.2939 30.1186 30.2478C30.1404 30.2017 30.1504 30.1516 30.1478 30.1013C30.1487 30.0582 30.14 30.0154 30.1222 29.9755C30.1044 29.9357 30.0779 29.8996 30.0443 29.8696C29.9718 29.8051 29.8864 29.7542 29.7929 29.7197C29.6533 29.6657 29.5101 29.6201 29.3641 29.5834C29.1401 29.5243 28.9224 29.4468 28.7135 29.3517C28.5399 29.2761 28.3898 29.1612 28.2773 29.0178C28.1462 28.8496 28.0811 28.6453 28.0925 28.4385C28.0845 28.2789 28.1188 28.1198 28.1922 27.975C28.2656 27.8302 28.3759 27.7039 28.5139 27.6071C28.8277 27.3944 29.2117 27.2885 29.6007 27.3073C29.9944 27.2875 30.3834 27.3934 30.7022 27.6071C30.8414 27.7062 30.9542 27.8332 31.0324 27.9784C31.1105 28.1236 31.1518 28.2833 31.1532 28.4453H30.0591C30.0587 28.3896 30.0453 28.3345 30.0198 28.284C29.9942 28.2334 29.9572 28.1885 29.9112 28.1523C29.812 28.0816 29.689 28.0454 29.5637 28.0501C29.4589 28.0448 29.3558 28.0765 29.2754 28.1387C29.2347 28.17 29.2027 28.2099 29.1822 28.2549C29.1616 28.3 29.153 28.3489 29.1571 28.3976C29.1571 28.4571 29.1752 28.5154 29.2091 28.5659C29.2431 28.6165 29.2916 28.6573 29.3493 28.6839C29.5366 28.7774 29.7351 28.8506 29.9407 28.9019C30.2069 28.9905 30.4213 29.0655 30.5913 29.1404C30.7583 29.2226 30.9044 29.3364 31.0201 29.4744C31.148 29.6363 31.2131 29.8331 31.205 30.0332C31.2087 30.2434 31.1444 30.4498 31.0201 30.6261C30.8939 30.8087 30.7146 30.9551 30.5026 31.0486C30.2505 31.1567 29.9748 31.2103 29.6968 31.2053C29.4187 31.2086 29.1426 31.1623 28.8835 31.069Z" fill="#CA8E2B"/>
<path d="M34.3212 29.871H32.1699C32.1771 30.0311 32.2413 30.1836 32.3515 30.302C32.4056 30.3519 32.4693 30.3909 32.5388 30.4167C32.6083 30.4426 32.6823 30.4547 32.7566 30.4525C32.8604 30.4606 32.964 30.4366 33.053 30.3838C33.142 30.331 33.2118 30.2521 33.2525 30.1583H34.2653C34.2146 30.3567 34.1191 30.5414 33.9859 30.6988C33.8443 30.8573 33.6707 30.9854 33.476 31.075C33.2555 31.1672 33.0172 31.2115 32.7776 31.205C32.496 31.2105 32.2175 31.147 31.9674 31.0203C31.7312 30.8944 31.5372 30.7043 31.4086 30.473C31.2698 30.2187 31.2 29.9336 31.206 29.6453C31.201 29.357 31.2707 29.0722 31.4086 28.8175C31.5324 28.5868 31.7248 28.3983 31.9604 28.2771C32.2113 28.1451 32.4929 28.0791 32.7776 28.0855C33.0568 28.0809 33.3329 28.1443 33.5808 28.2702C33.8089 28.3927 33.9976 28.5751 34.1256 28.797C34.2612 29.0424 34.3286 29.3184 34.3212 29.5974C34.328 29.6885 34.328 29.7799 34.3212 29.871ZM33.3643 29.3511C33.3676 29.28 33.3542 29.2091 33.3252 29.1439C33.2961 29.0786 33.2521 29.0208 33.1967 28.9749C33.0801 28.8775 32.9307 28.8262 32.7776 28.8312C32.6317 28.8241 32.4888 28.8732 32.3794 28.968C32.2633 29.0657 32.1886 29.2023 32.1699 29.3511H33.3643Z" fill="#CA8E2B"/>
<path d="M38.227 28.0851V31.1707H37.2691V30.7538C37.1646 30.8909 37.0296 31.0026 36.8746 31.0804C36.7018 31.165 36.5111 31.2079 36.3182 31.2055C36.0963 31.2089 35.8774 31.1537 35.6843 31.0457C35.5009 30.9401 35.3537 30.7828 35.2617 30.5939C35.1549 30.3777 35.1018 30.1395 35.1068 29.899V28.092H36.0576V29.7669C36.0515 29.854 36.0634 29.9413 36.0924 30.0237C36.1215 30.1061 36.1671 30.1819 36.2267 30.2464C36.2821 30.3051 36.35 30.3511 36.4255 30.3811C36.5009 30.4112 36.5821 30.4245 36.6633 30.4202C36.7456 30.4241 36.8277 30.4106 36.9043 30.3807C36.9808 30.3507 37.0499 30.3049 37.1071 30.2464C37.2202 30.1123 37.278 29.9412 37.2691 29.7669V28.0851H38.227Z" fill="#CA8E2B"/>
<path d="M44.1591 28.4406C44.2664 28.5701 44.3489 28.7225 44.4016 28.8885C44.4543 29.0545 44.476 29.2307 44.4655 29.4063V31.2056H43.6149V29.5313C43.6209 29.4486 43.6118 29.3653 43.5881 29.2865C43.5645 29.2078 43.5268 29.1351 43.4774 29.0728C43.3703 28.9649 43.231 28.9052 43.0865 28.9052C42.9419 28.9052 42.8026 28.9649 42.6956 29.0728C42.6453 29.1347 42.6066 29.2072 42.5819 29.2859C42.5572 29.3647 42.5469 29.4481 42.5517 29.5313V31.2056H41.7073V29.5313C41.7121 29.4481 41.7018 29.3647 41.6771 29.2859C41.6524 29.2072 41.6138 29.1347 41.5635 29.0728C41.4565 28.9649 41.3171 28.9052 41.1726 28.9052C41.0281 28.9052 40.8887 28.9649 40.7817 29.0728C40.7314 29.1347 40.6928 29.2072 40.6681 29.2859C40.6434 29.3647 40.6331 29.4481 40.6378 29.5313V31.2056H39.7872V28.1211H40.6378V28.5101C40.7266 28.3794 40.8425 28.2745 40.9756 28.2044C41.1239 28.1254 41.2864 28.085 41.4509 28.0863C41.6469 28.0857 41.8401 28.1382 42.0138 28.2392C42.1743 28.3378 42.3065 28.4846 42.3953 28.6629C42.4963 28.4942 42.6312 28.3539 42.7893 28.2531C42.9536 28.1434 43.1418 28.0857 43.3335 28.0863C43.4857 28.0787 43.6377 28.1063 43.7798 28.1672C43.9219 28.2282 44.051 28.3213 44.1591 28.4406Z" fill="#CA8E2B"/>
<path d="M48.3637 29.8409H46.2124C46.2196 30.0046 46.2838 30.1605 46.394 30.2816C46.4481 30.3327 46.5117 30.3725 46.5813 30.3989C46.6508 30.4253 46.7248 30.4378 46.7991 30.4355C46.9028 30.4438 47.0065 30.4192 47.0955 30.3652C47.1845 30.3113 47.2543 30.2306 47.295 30.1347H48.3078C48.2571 30.3375 48.1616 30.5264 48.0284 30.6874C47.8868 30.8495 47.7132 30.9805 47.5185 31.0721C47.298 31.1664 47.0597 31.2117 46.8201 31.2051C46.5385 31.2107 46.26 31.1458 46.0098 31.0162C45.7737 30.8874 45.5797 30.693 45.4511 30.4565C45.3122 30.1964 45.2425 29.9049 45.2485 29.61C45.2434 29.3152 45.3131 29.024 45.4511 28.7635C45.5748 28.5275 45.7673 28.3348 46.0029 28.2108C46.2538 28.0759 46.5354 28.0084 46.8201 28.015C47.0993 28.0102 47.3753 28.0751 47.6233 28.2038C47.8514 28.3291 48.0401 28.5157 48.1681 28.7425C48.3037 28.9935 48.3711 29.2757 48.3637 29.561C48.3704 29.6542 48.3704 29.7477 48.3637 29.8409ZM47.4766 27.2594L46.1355 27.8261V27.1685L47.4766 26.5248V27.2594ZM47.4068 29.3092C47.4101 29.2365 47.3967 29.164 47.3676 29.0973C47.3386 29.0306 47.2946 28.9714 47.2391 28.9244C47.1226 28.8249 46.9732 28.7725 46.8201 28.7775C46.6742 28.7702 46.5313 28.8205 46.4219 28.9174C46.3056 29.0162 46.2328 29.157 46.2194 29.3092H47.4068Z" fill="#CA8E2B"/>
<path d="M48.5419 28.9175C48.6453 28.7056 48.8066 28.5262 49.0077 28.3996C49.2066 28.2761 49.4378 28.2123 49.673 28.2161C49.8574 28.2138 50.0397 28.2542 50.2053 28.3341C50.357 28.4082 50.4874 28.5186 50.5845 28.6553V27.3049H51.4893V31.1659H50.5845V30.7529C50.4963 30.894 50.3694 31.0076 50.2185 31.0807C50.0506 31.1677 49.8627 31.2106 49.673 31.2052C49.4378 31.209 49.2066 31.1452 49.0077 31.0217C48.8073 30.8914 48.6463 30.7103 48.5419 30.4973C48.4278 30.2491 48.3688 29.9798 48.3688 29.7074C48.3688 29.4349 48.4278 29.1656 48.5419 28.9175ZM50.3982 29.1862C50.3401 29.1234 50.2691 29.0735 50.19 29.0396C50.1109 29.0057 50.0254 28.9886 49.9391 28.9896C49.8535 28.9886 49.7685 29.005 49.6895 29.0377C49.6106 29.0704 49.5393 29.1187 49.48 29.1797C49.4153 29.2506 49.3655 29.3335 49.3336 29.4235C49.3016 29.5135 49.2881 29.6089 49.2938 29.7041C49.2827 29.8983 49.3496 30.089 49.48 30.2351C49.5386 30.2974 49.6096 30.3472 49.6886 30.3812C49.7676 30.4152 49.8529 30.4328 49.9391 30.4328C50.0253 30.4328 50.1106 30.4152 50.1896 30.3812C50.2686 30.3472 50.3396 30.2974 50.3982 30.2351C50.5191 30.0862 50.585 29.9013 50.585 29.7106C50.585 29.52 50.5191 29.3351 50.3982 29.1862Z" fill="#CA8E2B"/>
<path d="M52.4911 28.0769C52.4202 28.0371 52.3638 27.9881 52.3255 27.9331C52.2873 27.8782 52.2682 27.8186 52.2696 27.7585C52.2681 27.6975 52.2871 27.637 52.3253 27.581C52.3635 27.5251 52.42 27.4749 52.4911 27.434C52.6444 27.3471 52.8444 27.301 53.0497 27.3054C53.2552 27.2997 53.456 27.346 53.6082 27.434C53.6794 27.4749 53.7359 27.5251 53.7741 27.581C53.8123 27.637 53.8313 27.6975 53.8297 27.7585C53.8311 27.8186 53.8121 27.8782 53.7738 27.9331C53.7356 27.9881 53.6791 28.0371 53.6082 28.0769C53.456 28.1649 53.2552 28.2111 53.0497 28.2055C52.8444 28.2098 52.6444 28.1638 52.4911 28.0769ZM53.7045 28.4871V31.2056H52.3948V28.4871H53.7045Z" fill="#CA8E2B"/>
<path d="M54.0309 28.818C54.1598 28.5888 54.3564 28.401 54.5962 28.2778C54.8507 28.1459 55.1368 28.0799 55.4262 28.0863C55.7866 28.0724 56.1408 28.1787 56.428 28.3872C56.7047 28.5964 56.8907 28.8959 56.9504 29.2282H55.9128C55.8835 29.1242 55.8179 29.0329 55.7268 28.9694C55.6356 28.906 55.5245 28.8742 55.4119 28.8795C55.329 28.8776 55.2468 28.8946 55.1722 28.9291C55.0975 28.9636 55.0325 29.0146 54.9826 29.0778C54.8747 29.2492 54.8177 29.4454 54.8177 29.6454C54.8177 29.8453 54.8747 30.0416 54.9826 30.2129C55.0313 30.2775 55.096 30.3294 55.171 30.364C55.246 30.3986 55.3287 30.4149 55.4119 30.4112C55.5245 30.4165 55.6356 30.3847 55.7268 30.3213C55.8179 30.2578 55.8835 30.1665 55.9128 30.0625H56.9504C56.8851 30.3944 56.6972 30.6929 56.4209 30.9035C56.1364 31.112 55.7844 31.2185 55.4262 31.2044C55.1378 31.2099 54.8525 31.1465 54.5962 31.0198C54.3569 30.8929 54.1607 30.703 54.0309 30.4727C53.8911 30.2179 53.8221 29.933 53.8305 29.6454C53.8231 29.3578 53.892 29.0732 54.0309 28.818Z" fill="#CA8E2B"/>
<path d="M57.7067 31.0207C57.4734 30.8969 57.2809 30.7066 57.1529 30.4734C57.0199 30.2194 56.9503 29.9364 56.9503 29.6489C56.9503 29.3614 57.0199 29.0783 57.1529 28.8244C57.2827 28.5902 57.4776 28.3998 57.7135 28.277C57.9587 28.1457 58.233 28.0797 58.5104 28.0854C58.7876 28.0806 59.0617 28.1465 59.3073 28.277C59.5417 28.4017 59.7362 28.5916 59.8678 28.8244C60.0065 29.0748 60.0764 29.3583 60.0704 29.6455C60.0777 29.9357 60.0052 30.2224 59.861 30.4734C59.7274 30.7045 59.5334 30.894 59.3005 31.0207C59.0509 31.146 58.7754 31.2094 58.4968 31.2055C58.2226 31.2093 57.9515 31.1459 57.7067 31.0207ZM58.9493 30.2065C59.0803 30.0509 59.1458 29.8495 59.1317 29.6455C59.1436 29.4429 59.081 29.243 58.9561 29.0844C58.8995 29.0222 58.8304 28.973 58.7536 28.9399C58.6767 28.9069 58.5938 28.8908 58.5104 28.8928C58.4267 28.8894 58.3434 28.9049 58.2663 28.938C58.1892 28.9711 58.1203 29.0211 58.0646 29.0844C57.9336 29.24 57.8681 29.4414 57.8823 29.6455C57.8697 29.8481 57.9323 30.0482 58.0578 30.2065C58.1128 30.2694 58.1804 30.3197 58.2562 30.3539C58.3319 30.3881 58.4139 30.4055 58.4968 30.4049C58.5816 30.4049 58.6655 30.3873 58.7433 30.3531C58.8211 30.319 58.8912 30.2691 58.9493 30.2065Z" fill="#CA8E2B"/>
<path d="M61.833 30.3994C62.2444 30.1128 62.5627 29.8796 62.7955 29.693C63.0172 29.5221 63.2151 29.3298 63.3855 29.12C63.5312 28.9466 63.6148 28.7405 63.6261 28.527C63.6343 28.4076 63.5931 28.2896 63.5097 28.1938C63.4656 28.1505 63.4104 28.1165 63.3484 28.0946C63.2865 28.0726 63.2195 28.0632 63.1526 28.0672C63.0819 28.0653 63.0117 28.0783 62.9481 28.105C62.8845 28.1317 62.8295 28.1713 62.7878 28.2204C62.6887 28.3456 62.6421 28.496 62.6558 28.6469H61.6312C61.6285 28.3834 61.7061 28.1238 61.8563 27.8939C61.9908 27.7011 62.1877 27.546 62.423 27.4475C62.6665 27.3521 62.9316 27.3043 63.1992 27.3076C63.6037 27.2857 64.002 27.4005 64.3092 27.6274C64.4342 27.7398 64.5317 27.8727 64.5957 28.018C64.6597 28.1634 64.6889 28.3184 64.6818 28.4737C64.6786 28.8588 64.5195 29.231 64.2316 29.5265C63.891 29.8777 63.5056 30.1951 63.0827 30.4727H64.7517V31.2056H61.6467V30.5393C61.714 30.498 61.7764 30.4511 61.833 30.3994Z" fill="#CA8E2B"/>
<path d="M64.7517 30.5213V29.7685L66.4147 27.3049H67.4416V29.7138H67.8723V30.5213H67.4416V31.2056H66.5339V30.5213H64.7517ZM66.587 28.3314L65.6991 29.7001H66.587V28.3314Z" fill="#CA8E2B"/>
<path d="M71.4465 28.5698C71.6747 28.8271 71.7907 29.1561 71.771 29.4904V31.2056H70.8186V29.6096C70.8275 29.4436 70.7696 29.2804 70.6563 29.1526C70.5391 29.0458 70.3822 28.9861 70.2189 28.9861C70.0555 28.9861 69.8986 29.0458 69.7815 29.1526C69.7231 29.2147 69.6786 29.2871 69.6507 29.3656C69.6228 29.4441 69.6121 29.5271 69.6192 29.6096V31.2056H68.6526V27.3049H69.6192V28.6626C69.7184 28.5271 69.8549 28.4195 70.0143 28.3513C70.1922 28.2701 70.3879 28.2293 70.5857 28.2321C70.7467 28.2267 70.907 28.2541 71.0556 28.3124C71.2042 28.3707 71.3375 28.4585 71.4465 28.5698Z" fill="#CA8E2B"/>
<path d="M89.2176 25.4696C89.1451 25.4007 89.0882 25.3173 89.0508 25.225C89.0134 25.1327 88.9963 25.0336 89.0007 24.9343C88.9968 24.8336 89.014 24.7332 89.0513 24.6394C89.0887 24.5456 89.1453 24.4605 89.2176 24.3893C89.2894 24.3209 89.3744 24.2675 89.4676 24.2324C89.5608 24.1973 89.6602 24.1811 89.7599 24.1849C89.9578 24.181 90.1492 24.2545 90.2924 24.3893C90.3615 24.4623 90.4154 24.5479 90.4509 24.6415C90.4865 24.735 90.503 24.8345 90.4994 24.9343C90.5033 25.0327 90.4869 25.1309 90.4514 25.2229C90.4158 25.3148 90.3617 25.3988 90.2924 25.4696C90.2233 25.5395 90.1404 25.5946 90.0487 25.6314C89.9571 25.6683 89.8588 25.6861 89.7599 25.6837C89.6593 25.688 89.5589 25.6712 89.4654 25.6343C89.3719 25.5974 89.2875 25.5412 89.2176 25.4696Z" fill="#016096"/>
<path d="M92.9777 25.2639C92.448 24.9487 92.014 24.4778 91.7274 23.9071C91.4179 23.2653 91.2633 22.5512 91.2775 21.8295C91.2636 21.1115 91.4207 20.4015 91.734 19.7661C92.024 19.195 92.463 18.7262 92.9976 18.4164C93.5528 18.1056 94.1703 17.9432 94.7971 17.9432C95.4239 17.9432 96.0414 18.1056 96.5966 18.4164C97.1256 18.7261 97.5597 19.1923 97.8469 19.759C98.1563 20.3982 98.311 21.11 98.2968 21.8295C98.3129 22.5523 98.1558 23.2674 97.8403 23.9071C97.5488 24.4788 97.1104 24.9496 96.5767 25.2639C96.0232 25.5868 95.4013 25.7522 94.7706 25.7444C94.1442 25.7524 93.5265 25.5868 92.9777 25.2639ZM96.2195 24.8116C96.6755 24.56 97.051 24.1688 97.2978 23.688C97.5673 23.1133 97.7077 22.4794 97.7077 21.8366C97.7077 21.1938 97.5673 20.5599 97.2978 19.9851C97.0518 19.5062 96.679 19.1153 96.2261 18.8616C95.7807 18.615 95.2855 18.4889 94.7838 18.4941C94.2864 18.4883 93.7953 18.6145 93.3548 18.8616C92.9035 19.1177 92.5313 19.5079 92.2831 19.9851C91.9982 20.551 91.859 21.1874 91.8796 21.8295C91.8596 22.4752 91.9963 23.1154 92.2765 23.688C92.5201 24.1665 92.8906 24.5574 93.3416 24.8116C93.7821 25.0586 94.2731 25.1849 94.7706 25.179C95.2743 25.1834 95.7714 25.0574 96.2195 24.8116Z" fill="#016096"/>
<path d="M100.535 18.3881C101.041 18.0714 101.617 17.9183 102.199 17.9465V18.6017H102.011C101.389 18.577 100.78 18.8052 100.302 19.2427C100.062 19.5187 99.8793 19.8491 99.7674 20.2107C99.6556 20.5724 99.617 20.9566 99.6543 21.3364V25.7447H99.0781V18.1103H99.6543V19.6913C99.7977 19.1556 100.11 18.6936 100.535 18.3881Z" fill="#016096"/>
<path d="M108.325 18.5308C108.825 18.8722 109.207 19.3678 109.415 19.9462V18.0792H109.999V25.5406C110.012 26.1534 109.865 26.7586 109.572 27.2931C109.3 27.7829 108.9 28.1846 108.417 28.4524C107.918 28.7319 107.357 28.8735 106.788 28.8636C106.006 28.8875 105.236 28.6511 104.595 28.1895C104.016 27.767 103.603 27.1452 103.433 26.4371H104.017C104.186 26.9869 104.531 27.4619 104.996 27.7851C105.522 28.1445 106.144 28.326 106.775 28.3041C107.234 28.3058 107.686 28.1875 108.088 27.9604C108.487 27.7361 108.816 27.3993 109.034 26.9898C109.271 26.5318 109.389 26.0186 109.375 25.5002V23.3837C109.164 23.9678 108.781 24.4697 108.279 24.8194C107.722 25.2069 107.06 25.4049 106.388 25.3856C105.769 25.3968 105.159 25.2361 104.621 24.9205C104.108 24.6122 103.689 24.1613 103.413 23.6197C103.114 23.0099 102.965 22.3341 102.98 21.6515C102.964 20.971 103.113 20.2972 103.413 19.6901C103.687 19.151 104.107 18.7042 104.621 18.4027C105.16 18.0922 105.77 17.9341 106.388 17.9444C107.077 17.9261 107.755 18.1313 108.325 18.5308ZM109.034 20.0069C108.794 19.5391 108.43 19.151 107.983 18.888C107.534 18.6239 107.024 18.4888 106.506 18.4971C105.979 18.4826 105.457 18.6129 104.996 18.8745C104.559 19.128 104.206 19.5109 103.985 19.9732C103.743 20.5074 103.617 21.0894 103.617 21.6785C103.617 22.2676 103.743 22.8496 103.985 23.3837C104.208 23.8485 104.563 24.2336 105.002 24.4892C105.462 24.7507 105.981 24.8832 106.506 24.8733C107.026 24.8808 107.538 24.7459 107.99 24.4824C108.437 24.2194 108.801 23.8313 109.041 23.3635C109.299 22.842 109.427 22.2632 109.415 21.6785C109.427 21.0973 109.296 20.5223 109.034 20.0069Z" fill="#016096"/>
<path d="M18.0862 20.7082L15.1456 20.0484C15.1456 19.6658 15.1456 19.2831 15.1456 18.9004C15.1456 18.8279 15.1456 18.8147 15.2085 18.7751C16.0725 18.2813 16.8072 17.6095 17.3575 16.8097C17.9078 16.01 18.2596 15.103 18.3865 14.1567C18.4185 13.938 18.4371 13.7177 18.4424 13.497V13.1605C18.4424 12.2104 18.4424 11.2603 18.4424 10.3037C18.4207 9.37837 18.0347 8.49392 17.3598 7.82297C16.1297 6.48546 14.4063 5.64085 12.5403 5.461H10.9897L10.829 5.50719C8.98437 5.67974 7.27974 6.51316 6.06547 7.83616C5.46187 8.38929 5.08986 9.12958 5.01776 9.92102C4.97585 10.9239 4.98283 11.9465 5.01776 12.9296V13.7477C5.02219 14.0002 5.05024 14.2519 5.10157 14.4998C5.26832 15.381 5.63172 16.2185 6.16763 16.9568C6.70355 17.6951 7.39967 18.3172 8.20977 18.7817C8.29358 18.8279 8.2936 18.8477 8.2936 18.9004C8.2936 19.2875 8.2936 19.6768 8.2936 20.0682L5.36699 20.728C3.06203 21.2492 2.09813 21.9683 1.5603 23.5716V29.7668C1.92351 28.6056 2.95726 25.3595 3.35539 24.1324C3.62081 23.3143 3.83734 22.9052 5.80704 22.4632L5.98165 22.4236V26.1842C5.32829 26.372 4.75589 26.7527 4.34855 27.2705C3.94121 27.7882 3.72041 28.4158 3.71858 29.0608V31.5811C3.71739 31.7869 3.77345 31.9894 3.88116 32.1682C3.98886 32.3471 4.14444 32.4961 4.33229 32.6003C4.52013 32.7045 4.73367 32.7602 4.95151 32.7619C5.16934 32.7636 5.38382 32.7113 5.57348 32.61C5.76314 32.5088 5.92133 32.3623 6.03217 32.1851C6.14302 32.008 6.20263 31.8064 6.20506 31.6007C6.20749 31.3949 6.15264 31.1922 6.04601 31.0127C5.93937 30.8333 5.7847 30.6835 5.59748 30.5783V29.0608C5.59748 28.7301 5.73656 28.4129 5.98413 28.1791C6.2317 27.9452 6.56749 27.8139 6.91761 27.8139C7.26772 27.8139 7.6035 27.9452 7.85106 28.1791C8.09863 28.4129 8.23771 28.7301 8.23771 29.0608V30.5849C7.99258 30.721 7.805 30.9332 7.70688 31.1853C7.64383 31.3468 7.61912 31.5194 7.63454 31.6909C7.64995 31.8624 7.7051 32.0287 7.79607 32.1778C7.88704 32.327 8.01162 32.4554 8.16097 32.5541C8.31033 32.6527 8.48082 32.7191 8.66036 32.7486C8.8399 32.7781 9.02411 32.7699 9.19995 32.7247C9.37578 32.6795 9.53895 32.5983 9.67789 32.4869C9.81683 32.3756 9.92814 32.2367 10.004 32.0801C10.0798 31.9236 10.1182 31.7532 10.1166 31.5811V29.0608C10.1148 28.4158 9.894 27.7882 9.48666 27.2705C9.07933 26.7527 8.50692 26.372 7.85356 26.1842V21.9749L8.66379 21.7902C8.70557 21.9493 8.76407 22.104 8.83841 22.252C9.53688 23.433 10.2353 24.4491 10.829 25.3793C10.9571 25.5809 11.1438 25.7435 11.3669 25.8478C11.4817 25.902 11.6087 25.9291 11.7371 25.9269C11.9168 25.9184 12.091 25.8651 12.2419 25.7724C12.3928 25.6797 12.5151 25.5509 12.5962 25.3991C13.2947 24.3501 13.9443 23.2945 14.6078 22.2322L14.7335 21.7836L15.7463 22.0079V27.6753C15.4123 27.799 15.1081 27.9853 14.8523 28.2229C14.6033 28.4498 14.4047 28.7213 14.268 29.0214C14.1312 29.3216 14.0592 29.6445 14.056 29.9713C14.0514 30.298 14.1149 30.6223 14.243 30.9257C14.3711 31.2291 14.5612 31.5058 14.8025 31.7398C15.0438 31.9739 15.3315 32.1607 15.6493 32.2897C15.967 32.4187 16.3085 32.4873 16.6543 32.4916C17.2746 32.5004 17.8781 32.3015 18.358 31.9301C18.8378 31.5588 19.163 31.039 19.276 30.4629C19.389 29.8867 19.2823 29.2914 18.9751 28.7824C18.6678 28.2734 18.1797 27.8835 17.5973 27.6819V22.4038C19.567 22.8458 19.7835 23.2549 20.0489 24.073C20.461 25.3068 21.4808 28.5594 21.844 29.714V23.5584C21.383 21.9552 20.4191 21.2294 18.0862 20.7082ZM8.18881 8.44315C8.75441 8.00216 9.40856 7.67373 10.1119 7.47758C10.8153 7.28144 11.5534 7.22162 12.2819 7.30175C13.023 7.37567 13.7409 7.58886 14.3934 7.92878C15.046 8.26869 15.62 8.72847 16.0816 9.28105C16.3376 9.58495 16.4779 9.96146 16.4797 10.3499V11.1482C16.2562 10.9239 16.0257 10.7062 15.7812 10.4884C15.6891 10.3834 15.5753 10.297 15.4469 10.2347C15.3184 10.1723 15.1779 10.1352 15.0339 10.1255C14.837 10.1335 14.6442 10.1807 14.4681 10.2641C13.6074 10.6515 12.666 10.8526 11.7126 10.8526C10.7592 10.8526 9.81781 10.6515 8.95714 10.2641C8.74516 10.1377 8.49088 10.0907 8.24411 10.1322C7.99733 10.1737 7.77584 10.3007 7.62305 10.4884L6.92458 11.1482C6.91061 9.84846 6.91061 9.46579 8.21676 8.44315H8.18881ZM13.1899 19.6592C13.1899 20.0682 13.1899 20.4707 13.1899 20.8863L11.7231 23.1955L10.2842 20.9325L10.2423 20.8599C10.2423 20.4707 10.2423 20.0814 10.2423 19.679V19.5404C11.2196 19.7483 12.2336 19.7483 13.2109 19.5404L13.1899 19.6592ZM11.8628 17.858C11.2302 17.8729 10.6007 17.7698 10.0103 17.5546C9.41993 17.3394 8.88028 17.0164 8.42224 16.604C7.9642 16.1915 7.59677 15.6978 7.34098 15.1511C7.08519 14.6044 6.94607 14.0153 6.93157 13.4178C6.93157 13.3254 6.93156 13.3254 7.01538 13.299C7.59344 13.0709 8.1006 12.7076 8.48917 12.2434C8.55902 12.1708 8.60091 12.1378 8.67076 12.1378C8.72643 12.1416 8.7809 12.155 8.83142 12.1774C10.7037 12.8469 12.7705 12.8469 14.6427 12.1774C14.7754 12.1378 14.8034 12.1774 14.8802 12.2302C15.3046 12.7232 15.8485 13.1124 16.4657 13.365C16.4691 13.3802 16.4691 13.396 16.4657 13.4112C16.454 14.5738 15.9683 15.6873 15.1098 16.5204C14.2512 17.3535 13.0858 17.842 11.8558 17.8844L11.8628 17.858ZM17.2061 30.5057C17.0601 30.6307 16.8722 30.7031 16.6753 30.7102C16.576 30.7087 16.478 30.6887 16.3869 30.6514C16.2958 30.614 16.2134 30.56 16.1444 30.4925C16.0741 30.4276 16.0191 30.3493 15.983 30.2629C15.9469 30.1765 15.9305 30.0839 15.9349 29.9911C15.9352 29.8977 15.9551 29.8053 15.9935 29.7192C16.0318 29.6332 16.0879 29.5551 16.1584 29.4897C16.2276 29.4256 16.3095 29.3752 16.3994 29.3412C16.4893 29.3072 16.5854 29.2904 16.6823 29.2917C16.8795 29.2941 17.0678 29.3699 17.2061 29.5029C17.3451 29.6394 17.4227 29.8215 17.4226 30.0109C17.4307 30.1948 17.3631 30.3744 17.2341 30.5123L17.2061 30.5057Z" fill="#CA8E2B"/>
<path d="M18.4948 0H4.90265C3.60177 0.00177588 2.35477 0.515174 1.43554 1.42747C0.516308 2.33976 -1.23406e-06 3.57635 0 4.86564V31.801C-1.23406e-06 33.0903 0.516308 34.3269 1.43554 35.2392C2.35477 36.1515 3.60177 36.6649 4.90265 36.6667H18.4948C19.7963 36.6649 21.044 36.1517 21.9643 35.2396C22.8846 34.3275 23.4025 33.0909 23.4043 31.801V4.87235C23.4043 3.58128 22.8872 2.34298 21.9667 1.42943C21.0462 0.515881 19.7975 0.00177589 18.4948 0ZM21.5514 4.86564V31.801C21.5496 32.6039 21.227 33.3734 20.6541 33.9411C20.0813 34.5088 19.3049 34.8286 18.4948 34.8303H4.90265C4.09255 34.8286 3.31614 34.5088 2.74332 33.9411C2.17049 33.3734 1.8479 32.6039 1.84611 31.801V4.87235C1.8479 4.06947 2.17049 3.29998 2.74332 2.73226C3.31614 2.16454 4.09255 1.84482 4.90265 1.84305H7.67519C7.70531 2.15181 7.84991 2.43851 8.08099 2.64773C8.31208 2.85695 8.61323 2.97381 8.92621 2.97569H14.4375C14.7509 2.97532 15.0529 2.85898 15.2843 2.64947C15.5157 2.43996 15.6598 2.15238 15.6885 1.84305H18.4948C19.3014 1.85011 20.0726 2.17217 20.6411 2.73932C21.2095 3.30647 21.5293 4.07294 21.5311 4.87235L21.5514 4.86564Z" fill="#026096"/>
</svg>
